<?xml version="1.0" standalone="no"?>
<!DOCTYPE svg PUBLIC "-//W3C//DTD SVG 20010904//EN"
 "http://www.w3.org/TR/2001/REC-SVG-20010904/DTD/svg10.dtd">
<svg version="1.0" xmlns="http://www.w3.org/2000/svg"
 width="2516.000000pt" height="2516.000000pt" viewBox="0 0 2516.000000 2516.000000"
 preserveAspectRatio="xMidYMid meet">
<metadata>
Created by potrace 1.11, written by Peter Selinger 2001-2013
</metadata>
<g transform="translate(0.000000,2516.000000) scale(0.100000,-0.100000)"
fill="#000000" stroke="none">
<path d="M40 12585 l0 -2865 320 0 320 0 2 1364 3 1364 819 -1364 819 -1364
354 0 c194 0 353 2 353 4 0 3 -397 665 -882 1473 -485 807 -882 1477 -882
1488 0 11 361 628 802 1372 441 743 802 1361 802 1372 0 21 -3 21 -348 21
l-349 0 -744 -1278 -744 -1279 -3 1279 -2 1278 -320 0 -320 0 0 -2865z"/>
<path d="M5520 12585 l0 -2865 320 0 320 0 0 2640 0 2640 815 0 815 0 0 -1050
0 -1050 -569 0 -569 0 -41 -46 c-23 -26 -41 -52 -41 -58 0 -6 298 -701 662
-1543 l663 -1533 338 0 c185 0 337 2 337 4 0 7 -570 1284 -915 2051 -163 363
-299 667 -301 675 -4 13 34 15 308 15 291 0 319 2 400 22 171 44 280 119 335
231 l28 57 0 1180 0 1180 -33 67 c-38 77 -115 153 -195 192 -120 58 -60 56
-1424 56 l-1253 0 0 -2865z"/>
<path d="M16680 12585 l0 -2866 953 4 c924 3 955 4 1048 24 271 60 492 171
666 336 128 122 217 270 265 442 l23 80 3 1915 c2 1325 0 1944 -8 2009 -50
435 -403 770 -942 894 -91 20 -116 21 -1050 24 l-958 4 0 -2866z m1600 2405
c146 -11 257 -37 355 -84 129 -61 258 -184 306 -292 51 -114 49 -16 49 -2024
0 -2037 3 -1923 -57 -2048 -36 -75 -158 -197 -244 -246 -80 -44 -183 -80 -293
-102 -66 -14 -171 -17 -578 -21 l-498 -5 0 2416 0 2416 418 0 c229 0 473 -5
542 -10z"/>
<path d="M22453 15436 c-132 -32 -251 -123 -305 -234 l-33 -67 0 -2550 0
-2550 33 -67 c56 -114 183 -208 320 -237 37 -8 390 -11 1159 -11 1200 0 1162
-2 1272 55 117 60 187 137 221 244 20 62 20 89 20 2566 0 2477 0 2504 -20
2566 -34 107 -104 184 -221 244 -111 57 -71 55 -1280 54 -855 -1 -1126 -4
-1166 -13z m2037 -2851 l0 -2415 -870 0 -870 0 0 2415 0 2415 870 0 870 0 0
-2415z"/>
</g>
</svg>
