<?xml version="1.0" encoding="utf-8"?>
<!-- Generator: Adobe Illustrator 22.0.1, SVG Export Plug-In . SVG Version: 6.00 Build 0)  -->
<svg version="1.1" id="Layer_1" xmlns="http://www.w3.org/2000/svg" xmlns:xlink="http://www.w3.org/1999/xlink" x="0px" y="0px"
	 viewBox="0 0 409 430.1" style="enable-background:new 0 0 409 430.1;" xml:space="preserve">
<style type="text/css">
	.st0{fill:#2E3192;stroke:#FFFFFF;stroke-width:3;stroke-miterlimit:10;}
</style>
<g>
	<g>
		<g>
			<path class="st0" d="M392.4,266.5h-3.9v-17c15.3-15.5,13.6-43.2,13.3-46.7v-29c0-9.3-7.6-16.9-16.9-16.9h-0.7
				c-3,0-5.7,0.8-8.1,2.1c-3.1-3.9-7.9-6.4-13.2-6.4h-0.7c-2.9,0-5.6,0.7-8,2c-3.1-3.7-7.8-6-13-6h-0.7c-2.4,0-4.6,0.5-6.7,1.4
				c-3-4.6-8.2-7.6-14.1-7.6h-0.7c-9.3,0-16.9,7.6-16.9,16.9v16.3c-6.8-0.7-12.1,0.6-16.1,3.9c-8.7,7.3-7.8,21.8-7,35.8
				c1.2,19.1,18.2,35.1,24.7,40.6v10.7h-3.3c-3.4,0-6.2,2.8-6.2,6.2v32.1v96.1c0,3.4,2.8,6.2,6.2,6.2h91.8c3.4,0,6.2-2.8,6.2-6.2
				v-96.1v-32.1C398.6,269.3,395.8,266.5,392.4,266.5z M291.5,214.4c-0.6-9.9-1.3-22.2,2.5-25.4c1.4-1.2,4.3-1.5,8.1-0.9v8.5
				c0,3.4,2.8,6.2,6.2,6.2c3.4,0,6.2-2.8,6.2-6.2v-37.3c0-2.5,2-4.5,4.5-4.5h0.7c2.5,0,4.5,2,4.5,4.5v2.9v21.2
				c0,3.4,2.8,6.2,6.2,6.2c3.4,0,6.2-2.8,6.2-6.2v-19.9c0.8-1.4,2.3-2.4,3.9-2.4h0.7c2.5,0,4.5,2,4.5,4.5v0.9v16.9
				c0,3.4,2.8,6.2,6.2,6.2s6.2-2.8,6.2-6.2v-15.8c0.7-1.5,2.3-2.4,4-2.4h0.7c2.5,0,4.5,2,4.5,4.5v4.3v12.5c0,3.4,2.8,6.2,6.2,6.2
				c3.4,0,6.2-2.8,6.2-6.2v-12.5c0-2.5,2-4.5,4.5-4.5h0.7c2.5,0,4.5,2,4.5,4.5v29.3c0,0.2,0,0.4,0,0.6c0.7,7.4,0.1,28.9-11.1,38.4
				c-1.4,1.2-2.2,2.9-2.2,4.8v19.7h-59.8v-13.7c0-2-0.9-3.8-2.5-5C313.5,247.7,292.5,231.8,291.5,214.4z M386.1,394.7h-79.4V311
				h79.4V394.7z M386.1,298.6h-79.4V279h3.3h72.2h3.9V298.6z"/>
			<path class="st0" d="M271.7,116.6l28.5,12c2.1,0.9,4.2,1.3,6.4,1.3c2.1,0,4.2-0.4,6.2-1.2c4.1-1.7,7.2-4.8,8.9-8.8l3.5-8.2
				c1.7-4,1.7-8.5,0.1-12.6s-4.8-7.2-8.8-8.9l-33.8-14.2l1.6-5.7c0-0.1,0-0.1,0.1-0.2c1-4.4,0.3-8.9-2.1-12.8
				c-2.4-3.9-6.1-6.5-10.5-7.6l-0.6-0.2c-2.9-0.7-5.8-0.6-8.4,0.2c-2.1-4.5-6.2-8.1-11.4-9.3l-0.6-0.1c-2.8-0.7-5.6-0.6-8.2,0.1
				c-0.2-0.4-0.5-0.9-0.7-1.3c-2.4-3.9-6.1-6.5-10.5-7.6l-0.6-0.2c-2.3-0.5-4.6-0.6-6.8-0.2c-0.4-1.1-0.9-2.1-1.5-3.1
				c-2.4-3.9-6.1-6.5-10.5-7.6l-0.6-0.1c-4.4-1-8.9-0.3-12.8,2.1c-3.8,2.4-6.5,6-7.6,10.4l-1.1,4.1l-43.9-18.4c0,0,0,0-0.1,0
				c-0.1,0-0.2-0.1-0.4-0.1c-0.1,0-0.2-0.1-0.2-0.1c-0.1,0-0.2-0.1-0.3-0.1c-0.1,0-0.2,0-0.3-0.1c-0.1,0-0.2,0-0.3,0
				c-0.1,0-0.3,0-0.4,0c0,0-0.1,0-0.1,0L102,15.2c-2.6-0.2-5,1.3-6.1,3.7c-1.1,2.4-0.5,5.2,1.3,7l29.3,28.6c0,0,0,0,0,0l0,0
				c0,0,0,0,0.1,0c0.1,0.1,0.2,0.2,0.4,0.3c0.1,0.1,0.1,0.1,0.2,0.1c0.1,0.1,0.1,0.1,0.2,0.2c0,0,0,0,0.1,0c0.1,0.1,0.2,0.1,0.3,0.2
				c0.8,0.5,1.6,1,2.5,1.3L157,68.1c-2,5.8-3.2,12.6-4.2,18.8c-3.4,19.5,10.5,39.8,15.2,45.9l0,28.3h-5.2c-3.4,0-6.2,2.8-6.2,6.2
				v32.1v201.4c0,3.4,2.8,6.2,6.2,6.2h91.8c3.4,0,6.2-2.8,6.2-6.2V245c0-3.4-2.8-6.2-6.2-6.2c-3.4,0-6.2,2.8-6.2,6.2v149.7h-79.4
				V205.8h79.4v10.4v6.9c0,3.4,2.8,6.2,6.2,6.2s6.2-2.8,6.2-6.2v-6.9v-16.6v-32.1c0-3.4-2.8-6.2-6.2-6.2h-2.6l0.1-16.1
				C262.6,138.2,268.5,126.1,271.7,116.6z M304.8,98.8l6.8,2.9c1,0.4,1.7,1.2,2.1,2.2c0.4,1,0.4,2.1,0,3l-3.5,8.2
				c-0.4,1-1.2,1.7-2.2,2.1c-1,0.4-2.1,0.4-3,0l-7.3-3.1L304.8,98.8z M275,103.4l4.2-15.3l14,5.9l-7,15.3l-11.4-4.8
				C274.9,104,275,103.6,275,103.4z M129.1,39.6L118,28.8l15.8,1L129.1,39.6z M139.3,47.1l7.1-14.9l40,16.8L182,65.2L139.3,47.1z
				 M248.4,193.3h-79.4v-19.6h79.4L248.4,193.3L248.4,193.3z M243.1,136c-2.1,1.1-3.4,3.2-3.4,5.5l-0.1,19.1h-59.1l0-29.9
				c0-1.5-0.5-2.9-1.5-4c-0.2-0.2-16.9-20.5-13.9-37.6c0.9-5.4,2-11.4,3.5-16.1l11.3,4.8c0.7,1.8,2.2,3.3,4.2,3.8
				c3.3,0.9,6.7-1.1,7.6-4.4l11.1-41.3c0-0.1,0-0.1,0-0.2c0.3-1.2,1-2.1,2-2.8c1-0.6,2.2-0.8,3.4-0.5l0.6,0.1c1.2,0.3,2.1,1,2.8,2
				c0.6,1,0.8,2.2,0.5,3.4l-0.6,2.7L204.2,66c-1,3.3,1,6.8,4.3,7.7c0.6,0.2,1.2,0.2,1.7,0.2c2.7,0,5.2-1.8,6-4.5l7.1-24.6
				c1.1-1.3,2.8-1.9,4.4-1.5l0.6,0.2c1.2,0.3,2.1,1,2.8,2c0.6,1,0.8,2.2,0.6,3.3l-6.5,22c-1,3.3,0.9,6.8,4.2,7.7
				c0.6,0.2,1.2,0.3,1.8,0.3c2.7,0,5.2-1.8,6-4.5l6-20.4c1.1-1.4,2.9-2.1,4.6-1.7l0.6,0.1c2.4,0.6,3.9,3,3.3,5.4l-0.9,4l-5.3,16.9
				c-1,3.3,0.8,6.8,4.1,7.8c0.6,0.2,1.2,0.3,1.9,0.3c2.7,0,5.1-1.7,5.9-4.4l5.4-17.1c0-0.1,0-0.2,0.1-0.2c0-0.1,0-0.1,0.1-0.2
				c0.6-2.4,3-3.9,5.4-3.3l0.6,0.2c2.4,0.6,3.8,2.9,3.3,5.3l-9.2,33.3c-0.1,0.3-0.1,0.5-0.2,0.8C262.7,101.5,258.8,128,243.1,136z"
				/>
			<path class="st0" d="M130.3,237.1v-29c0-9.3-7.6-16.9-16.9-16.9h-0.7c-3,0-5.7,0.8-8.1,2.1c-3.1-3.9-7.9-6.4-13.2-6.4h-0.7
				c-2.9,0-5.6,0.7-8,2c-3.1-3.7-7.8-6-13-6h-0.7c-2.4,0-4.6,0.5-6.7,1.4c-3-4.6-8.2-7.6-14.1-7.6h-0.7c-9.3,0-16.9,7.6-16.9,16.9
				v16.3c-6.8-0.7-12.1,0.6-16.1,3.9c-8.7,7.3-7.8,21.8-7,35.8c1.2,19.1,18.2,35.1,24.7,40.6v10.7H29c-3.4,0-6.2,2.8-6.2,6.2v32.1
				v61.7c0,3.4,2.8,6.2,6.2,6.2h91.8c3.4,0,6.2-2.8,6.2-6.2v-61.7v-32.1c0-3.4-2.8-6.2-6.2-6.2H117v-17
				C132.3,268.4,130.6,240.7,130.3,237.1z M114.6,394.7H35.2v-49.3h79.4V394.7z M114.6,332.9H35.2v-19.6h3.3h72.2h3.9V332.9z
				 M106.7,276.4c-1.4,1.2-2.2,2.9-2.2,4.8v19.7H44.7v0v-13.7c0-2-0.9-3.8-2.5-5c-5.9-4.4-21.4-18.9-22.3-33.4
				c-0.6-9.9-1.3-22.2,2.5-25.4c1.4-1.2,4.3-1.5,8.1-0.9v8.5c0,3.4,2.8,6.2,6.2,6.2c3.4,0,6.2-2.8,6.2-6.2v-37.4
				c0-2.5,2-4.5,4.5-4.5h0.7c2.5,0,4.5,2,4.5,4.5v2.9v21.2c0,3.4,2.8,6.2,6.2,6.2s6.2-2.8,6.2-6.2v-19.9c0.8-1.4,2.3-2.4,3.9-2.4
				h0.7c2.5,0,4.5,2,4.5,4.5v0.9v16.9c0,3.4,2.8,6.2,6.2,6.2c3.4,0,6.2-2.8,6.2-6.2v-15.8c0.7-1.5,2.3-2.4,4-2.4h0.7
				c2.5,0,4.5,2,4.5,4.5v4.3v12.5c0,3.4,2.8,6.2,6.2,6.2s6.2-2.8,6.2-6.2v-12.5c0-2.5,2-4.5,4.5-4.5h0.7c2.5,0,4.5,2,4.5,4.5v29.3
				c0,0.2,0,0.4,0,0.6C118.5,245.5,117.9,266.9,106.7,276.4z"/>
		</g>
	</g>
</g>
</svg>
