<?xml version="1.0" encoding="utf-8"?>
<!-- Generator: Adobe Illustrator 22.0.1, SVG Export Plug-In . SVG Version: 6.00 Build 0)  -->
<svg version="1.1" id="Layer_1" xmlns="http://www.w3.org/2000/svg" xmlns:xlink="http://www.w3.org/1999/xlink" x="0px" y="0px"
	 viewBox="0 0 409 397" style="enable-background:new 0 0 409 397;" xml:space="preserve">
<style type="text/css">
	.st0{fill:#2E3192;stroke:#F2F2F2;stroke-width:3;stroke-miterlimit:10;}
</style>
<g>
	<g>
		<g>
			<path class="st0" d="M183.5,118.4v10.2c0,0.2,0,0.4,0,0.5v19.5c0,3.1,2.5,5.7,5.7,5.7h29.2c3.1,0,5.7-2.5,5.7-5.7v-19.5
				c0-0.2,0-0.4,0-0.5v-10.2c10.1-6.7,16.2-18.1,16.2-30.3c0-20.1-16.4-36.5-36.5-36.5c-20.1,0-36.5,16.4-36.5,36.5
				C167.3,100.4,173.4,111.7,183.5,118.4z M212.6,142.9h-17.8v-8.1h17.8V142.9z M203.7,63c13.8,0,25.1,11.3,25.1,25.1
				c0,9.3-5.1,17.7-13.2,22.1c-1.8,1-3,2.9-3,5v8.2h-3.1v-20.6c0-3.1-2.5-5.7-5.7-5.7s-5.7,2.5-5.7,5.7v20.6h-3.3v-8.2
				c0-2.1-1.1-4-3-5c-8.2-4.4-13.2-12.9-13.2-22.1C178.6,74.3,189.9,63,203.7,63z"/>
			<path class="st0" d="M197.6,157.3c-3.1,0-5.7,2.5-5.7,5.7s2.5,5.7,5.7,5.7h12.3c3.1,0,5.7-2.5,5.7-5.7s-2.5-5.7-5.7-5.7H197.6z"
				/>
			<path class="st0" d="M140.2,92.9h16c3.1,0,5.7-2.5,5.7-5.7c0-3.1-2.5-5.7-5.7-5.7h-16c-3.1,0-5.7,2.5-5.7,5.7
				C134.6,90.3,137.1,92.9,140.2,92.9z"/>
			<path class="st0" d="M245.5,87.2c0,3.1,2.5,5.7,5.7,5.7h16c3.1,0,5.7-2.5,5.7-5.7c0-3.1-2.5-5.7-5.7-5.7h-16
				C248.1,81.5,245.5,84,245.5,87.2z"/>
			<path class="st0" d="M166.1,116.7l-11.3,11.3c-2.2,2.2-2.2,5.8,0,8c1.1,1.1,2.6,1.7,4,1.7c1.5,0,2.9-0.6,4-1.7l11.3-11.3
				c2.2-2.2,2.2-5.8,0-8C172,114.5,168.4,114.5,166.1,116.7z"/>
			<path class="st0" d="M237.3,59.3c1.5,0,2.9-0.6,4-1.7l11.3-11.3c2.2-2.2,2.2-5.8,0-8c-2.2-2.2-5.8-2.2-8,0l-11.3,11.3
				c-2.2,2.2-2.2,5.8,0,8C234.4,58.7,235.9,59.3,237.3,59.3z"/>
			<path class="st0" d="M203.7,45.4c3.1,0,5.7-2.5,5.7-5.7v-16c0-3.1-2.5-5.7-5.7-5.7c-3.1,0-5.7,2.5-5.7,5.7v16
				C198.1,42.8,200.6,45.4,203.7,45.4z"/>
			<path class="st0" d="M233.3,116.7c-2.2,2.2-2.2,5.8,0,8l11.3,11.3c1.1,1.1,2.6,1.7,4,1.7c1.5,0,2.9-0.6,4-1.7
				c2.2-2.2,2.2-5.8,0-8l-11.3-11.3C239.1,114.5,235.5,114.5,233.3,116.7z"/>
			<path class="st0" d="M166.1,57.6c1.1,1.1,2.6,1.7,4,1.7c1.5,0,2.9-0.6,4-1.7c2.2-2.2,2.2-5.8,0-8l-11.3-11.3
				c-2.2-2.2-5.8-2.2-8,0c-2.2,2.2-2.2,5.8,0,8L166.1,57.6z"/>
			<path class="st0" d="M241.8,315l-20.8-8.4v-2.5c5.6-3.4,10-8.7,12.1-15c7.7-0.7,13.8-7.3,13.8-15.2c0-4.7-2.1-8.9-5.5-11.7V253
				c0-18.4-14-33.7-31.9-35.6v-33.1c0-3.1-2.5-5.7-5.7-5.7s-5.7,2.5-5.7,5.7v33.2c-17.5,2.4-31,17.4-31,35.5v9.1
				c-3.4,2.8-5.5,7-5.5,11.8c0,8,6.2,14.6,14,15.2c2.1,6.3,6.5,11.6,12.1,15v2.4l-21.4,8.4c-2.1,0.8-19.2,7.6-19.2,29.4v18.9
				c0,3.1,2.5,5.7,5.7,5.7h13.4c3.1,0,5.7-2.5,5.7-5.7c0-3.1-2.5-5.7-5.7-5.7h-7.8v-13.2c0-14.4,11.2-18.5,11.6-18.7
				c0.1,0,0.2-0.1,0.3-0.1l19.6-7.7l10.4,10.1c1.1,1,2.5,1.6,4,1.6c0,0,0.1,0,0.1,0c1.5,0,2.9-0.6,4-1.7l9.8-10.1l19.5,7.8
				c0.1,0,0.2,0.1,0.3,0.1c0.5,0.2,11.7,4.3,11.7,18.7v13.2h-29.3h-32.5h-4.7c-3.1,0-5.7,2.5-5.7,5.7s2.5,5.7,5.7,5.7h4.7h32.5h35
				c3.1,0,5.7-2.6,5.7-5.7v-18.8C260.9,322.7,244,315.8,241.8,315z M234.5,271.3c0.6,0.7,1,1.6,1,2.6c0,1-0.4,1.9-1,2.6V271.3z
				 M174.1,276.7c-0.7-0.7-1.2-1.7-1.2-2.8c0-0.9,0.3-1.8,0.9-2.5c0.1,0,0.2,0,0.3-0.1L174.1,276.7L174.1,276.7z M179.8,255.8
				C179.8,255.8,179.8,255.8,179.8,255.8c-0.2,0-0.4,0-0.6,0c-0.1,0-0.1,0-0.2,0c-0.1,0-0.3,0-0.4,0.1c-0.1,0-0.1,0-0.2,0V253
				c0-13.5,11-24.5,24.5-24.5h2.5c13.5,0,24.5,11,24.5,24.5v2.8c-7-1.7-9.4-11.1-9.4-11.2c-0.5-2.2-2.2-3.9-4.4-4.3
				c-2.2-0.4-4.4,0.4-5.7,2.2C201.1,255.6,180.1,255.8,179.8,255.8z M209.6,310.2l-5.5,5.7l-5.1-4.9v-3c0.9,0.1,1.9,0.1,2.9,0.1h4.8
				c1,0,1.9-0.1,2.9-0.1L209.6,310.2L209.6,310.2z M206.7,296.7h-4.8c-9.1,0-16.4-7.4-16.4-16.4v-13.5h0c6.9-0.8,18.6-3.2,27.8-10.7
				c2.1,3.5,5.3,7.1,9.9,9.4v14.9C223.2,289.3,215.8,296.7,206.7,296.7z"/>
			<path class="st0" d="M363.2,315l-20.8-8.4v-2.5c5.6-3.4,10-8.7,12.1-15c7.7-0.7,13.8-7.3,13.8-15.2c0-4.7-2.1-8.9-5.5-11.7V253
				c0-18.4-13.9-33.5-31.7-35.6V116.6c0-3.1-2.5-5.7-5.7-5.7h-58.4c-3.1,0-5.7,2.5-5.7,5.7s2.5,5.7,5.7,5.7h52.7v95.2
				c-17.6,2.3-31.2,17.4-31.2,35.6v9.1c-3.4,2.8-5.5,7-5.5,11.8c0,8,6.2,14.6,14,15.2c2.1,6.3,6.5,11.6,12.1,15v2.4l-21.4,8.4
				c-2.1,0.8-19.2,7.6-19.2,29.4v18.9c0,3.1,2.5,5.7,5.7,5.7h13.4c3.1,0,5.7-2.5,5.7-5.7s-2.5-5.7-5.7-5.7h-7.8v-13.2
				c0-14.4,11.2-18.5,11.6-18.7c0.1,0,0.2-0.1,0.3-0.1l19.6-7.7l10.4,10.1c1.1,1,2.5,1.6,4,1.6c0,0,0.1,0,0.1,0c1.5,0,2.9-0.6,4-1.7
				l9.8-10.1l19.5,7.8c0.1,0,0.2,0.1,0.3,0.1c0.5,0.2,11.7,4.3,11.7,18.7v13.2h-29.3h-32.5h-4.7c-3.1,0-5.7,2.5-5.7,5.7
				c0,3.1,2.5,5.7,5.7,5.7h4.7h32.5h35c3.1,0,5.7-2.6,5.7-5.7v-18.8C382.3,322.7,365.4,315.8,363.2,315z M355.9,271.3
				c0.6,0.7,1,1.6,1,2.6c0,1-0.4,1.9-1,2.6V271.3z M295.5,276.7c-0.7-0.7-1.2-1.7-1.2-2.8c0-0.9,0.3-1.8,0.9-2.5
				c0.1,0,0.2,0,0.3-0.1L295.5,276.7L295.5,276.7z M301.2,255.8C301.2,255.8,301.2,255.8,301.2,255.8c-0.2,0-0.4,0-0.6,0
				c-0.1,0-0.1,0-0.2,0c-0.1,0-0.3,0-0.4,0.1c-0.1,0-0.1,0-0.2,0V253c0-13.5,11-24.5,24.5-24.5h2.5c13.5,0,24.5,11,24.5,24.5v2.8
				c-7-1.7-9.4-11.1-9.4-11.2c-0.5-2.2-2.2-3.9-4.4-4.3c-2.2-0.4-4.4,0.4-5.7,2.2C322.5,255.6,301.5,255.8,301.2,255.8z M331,310.2
				l-5.5,5.7l-5.1-4.9v-3c0.9,0.1,1.9,0.1,2.9,0.1h4.8c1,0,1.9-0.1,2.9-0.1L331,310.2L331,310.2z M328.1,296.7h-4.8
				c-9.1,0-16.4-7.4-16.4-16.4v-13.5h0c6.9-0.8,18.6-3.2,27.8-10.7c2.1,3.5,5.3,7.1,9.9,9.4v14.9
				C344.6,289.3,337.2,296.7,328.1,296.7z"/>
			<path class="st0" d="M141,110.9H82.6c-3.1,0-5.7,2.5-5.7,5.7v100.9c-17.6,2.3-31.2,17.4-31.2,35.6v9.1c-3.4,2.8-5.5,7-5.5,11.8
				c0,8,6.2,14.6,14,15.2c2.1,6.3,6.5,11.6,12.1,15v2.4L44.9,315c-2.1,0.8-19.2,7.6-19.2,29.4v18.9c0,3.1,2.5,5.7,5.7,5.7h13.4
				c3.1,0,5.7-2.5,5.7-5.7c0-3.1-2.5-5.7-5.7-5.7h-7.8v-13.2c0-14.4,11.2-18.5,11.6-18.7c0.1,0,0.2-0.1,0.3-0.1l19.6-7.7L78.9,328
				c1.1,1,2.5,1.6,4,1.6c0,0,0.1,0,0.1,0c1.5,0,2.9-0.6,4-1.7l9.8-10.1l19.5,7.8c0.1,0,0.2,0.1,0.3,0.1c0.5,0.2,11.7,4.3,11.7,18.7
				v13.2H98.9H66.4h-4.7c-3.1,0-5.7,2.5-5.7,5.7s2.5,5.7,5.7,5.7h4.7h32.5h35c3.1,0,5.7-2.6,5.7-5.7v-18.8c0-21.7-17-28.6-19.2-29.4
				l-20.8-8.4v-2.5c5.6-3.4,10-8.7,12.1-15c7.7-0.7,13.8-7.3,13.8-15.2c0-4.7-2.1-8.9-5.5-11.7V253c0-18.4-13.9-33.5-31.7-35.6
				v-95.2H141c3.1,0,5.7-2.5,5.7-5.7C146.7,113.5,144.1,110.9,141,110.9z M52.7,276.7c-0.7-0.7-1.2-1.7-1.2-2.8
				c0-0.9,0.3-1.8,0.9-2.5c0.1,0,0.2,0,0.3-0.1C52.7,271.4,52.7,276.7,52.7,276.7z M113.1,271.3c0.6,0.7,1,1.6,1,2.6
				c0,1-0.4,1.9-1,2.6V271.3z M88.2,310.2l-5.5,5.7l-5.1-4.9v-3c0.9,0.1,1.9,0.1,2.9,0.1h4.8c1,0,1.9-0.1,2.9-0.1L88.2,310.2
				L88.2,310.2z M101.8,280.3c0,9.1-7.4,16.4-16.4,16.4h-4.8c-9.1,0-16.4-7.4-16.4-16.4v-13.5c6.9-0.8,18.6-3.2,27.8-10.7
				c2.1,3.5,5.3,7.1,9.9,9.4V280.3z M108.6,253v2.8c-7-1.7-9.4-11.1-9.4-11.2c-0.5-2.2-2.2-3.9-4.4-4.3c-2.2-0.4-4.4,0.4-5.7,2.2
				c-9.4,13-30.4,13.1-30.7,13.1c0,0,0,0,0,0c-0.2,0-0.4,0-0.6,0c-0.1,0-0.1,0-0.2,0c-0.1,0-0.3,0-0.4,0.1c-0.1,0-0.1,0-0.2,0V253
				c0-13.5,11-24.5,24.5-24.5h2.5C97.6,228.5,108.6,239.5,108.6,253z"/>
		</g>
	</g>
</g>
</svg>
