<?xml version="1.0" encoding="utf-8"?>
<!-- Generator: Adobe Illustrator 22.0.1, SVG Export Plug-In . SVG Version: 6.00 Build 0)  -->
<svg version="1.1" id="Layer_1" xmlns="http://www.w3.org/2000/svg" xmlns:xlink="http://www.w3.org/1999/xlink" x="0px" y="0px"
	 viewBox="0 0 174.3 137.1" style="enable-background:new 0 0 174.3 137.1;" xml:space="preserve">
<style type="text/css">
	.st0{fill:#FFFFFF;}
</style>
<g>
	<g>
		<g>
			<path class="st0" d="M154,24.1h-38.9v-1.7c0-7.5-6.1-13.6-13.6-13.6H18.6c-7.5,0-13.6,6.1-13.6,13.6v47.7c0,1.4,1.1,2.6,2.6,2.6
				s2.6-1.1,2.6-2.6V22.4c0-4.7,3.8-8.5,8.5-8.5h82.9c4.7,0,8.5,3.8,8.5,8.5V79c0,4.7-3.8,8.5-8.5,8.5H62.6V37.7
				c0-4.7,3.8-8.5,8.5-8.5h26.2c1.4,0,2.6-1.1,2.6-2.6s-1.1-2.6-2.6-2.6H71.1c-7.5,0-13.6,6.1-13.6,13.6v49.8H49
				c-1.6,0-3.2,0.6-4.3,1.8L27.9,106V93.6c0-3.4-2.8-6.1-6.1-6.1h-3.1c-4.7,0-8.5-3.8-8.5-8.5c0-1.4-1.1-2.6-2.6-2.6
				S5.1,77.6,5.1,79c0,7.5,6.1,13.6,13.6,13.6h3.1c0.6,0,1,0.5,1,1v13.3c0,1.9,1.2,3.7,2.9,4.4c0.6,0.2,1.2,0.4,1.8,0.4
				c1.2,0,2.4-0.5,3.4-1.4l17.4-17.4c0.2-0.2,0.5-0.3,0.7-0.3h8.5v1.7c0,7.5,6.1,13.6,13.6,13.6h52.5c0.3,0,0.5,0.1,0.7,0.3
				l17.4,17.4c0.9,0.9,2.1,1.4,3.4,1.4c0.6,0,1.2-0.1,1.8-0.4c1.8-0.7,2.9-2.5,2.9-4.4v-13.3c0-0.6,0.5-1,1-1h3.1
				c7.5,0,13.6-6.1,13.6-13.6V37.7C167.5,30.2,161.5,24.1,154,24.1z M162.4,94.3L162.4,94.3c0,4.7-3.8,8.5-8.5,8.5h-3.1
				c-3.4,0-6.1,2.8-6.1,6.1v12.4L128,104.5c-1.2-1.2-2.7-1.8-4.3-1.8H71.1c-4.7,0-8.5-3.8-8.5-8.5v-1.7h38.9
				c7.5,0,13.6-6.1,13.6-13.6V29.2H154c4.7,0,8.5,3.8,8.5,8.5V94.3z"/>
		</g>
	</g>
	<g>
		<g>
			<path class="st0" d="M100.4,38.3H71.7c-1.4,0-2.6,1.1-2.6,2.6s1.1,2.6,2.6,2.6h28.8c1.4,0,2.6-1.1,2.6-2.6
				C103,39.4,101.9,38.3,100.4,38.3z"/>
		</g>
	</g>
	<g>
		<g>
			<path class="st0" d="M79.5,50h-7.9c-1.4,0-2.6,1.1-2.6,2.6s1.1,2.6,2.6,2.6h7.9c1.4,0,2.6-1.1,2.6-2.6S80.9,50,79.5,50z"/>
		</g>
	</g>
	<g>
		<g>
			<path class="st0" d="M100.4,50H89.6c-1.4,0-2.6,1.1-2.6,2.6s1.1,2.6,2.6,2.6h10.9c1.4,0,2.6-1.1,2.6-2.6S101.9,50,100.4,50z"/>
		</g>
	</g>
	<g>
		<g>
			<path class="st0" d="M82.8,71.5H71.9c-1.4,0-2.6,1.1-2.6,2.6c0,1.4,1.1,2.6,2.6,2.6h10.9c1.4,0,2.6-1.1,2.6-2.6
				C85.4,72.7,84.2,71.5,82.8,71.5z"/>
		</g>
	</g>
	<g>
		<g>
			<path class="st0" d="M100.4,60.8H71.7c-1.4,0-2.6,1.1-2.6,2.6s1.1,2.6,2.6,2.6h28.8c1.4,0,2.6-1.1,2.6-2.6S101.9,60.8,100.4,60.8
				z"/>
		</g>
	</g>
</g>
</svg>
