<?xml version="1.0" encoding="utf-8"?>
<!-- Generator: Adobe Illustrator 22.0.1, SVG Export Plug-In . SVG Version: 6.00 Build 0)  -->
<svg version="1.1" id="Layer_1" xmlns="http://www.w3.org/2000/svg" xmlns:xlink="http://www.w3.org/1999/xlink" x="0px" y="0px"
	 viewBox="0 0 729.6 562.8" style="enable-background:new 0 0 729.6 562.8;" xml:space="preserve">
<style type="text/css">
	.st0{fill:none;stroke:#FFFFFF;stroke-width:10;stroke-linecap:round;stroke-miterlimit:10;}
	.st1{fill:none;stroke:#FFFFFF;stroke-width:5;stroke-miterlimit:10;}
	.st2{fill:#FFFFFF;}
	.st3{fill:#FFFFFF;stroke:#FFFFFF;stroke-miterlimit:10;}
</style>
<g>
	<path class="st0" d="M13.8,290.7V20.4c0-2.3,4-4.1,9-4.1h627.1c4.9,0,9,1.9,9,4.1v145.1"/>
	<line class="st0" x1="13.8" y1="413.4" x2="13.8" y2="376.2"/>
	<line class="st0" x1="13.8" y1="449" x2="13.8" y2="436.1"/>
	<path class="st0" d="M658.7,431.2v109.5c0,1.7-4,3.1-9,3.1H22.7c-4.9,0-9-1.4-9-3.1v-68.9"/>
	<line class="st1" x1="130.9" y1="47.5" x2="193" y2="47.5"/>
	<line class="st1" x1="130.9" y1="67.6" x2="193" y2="67.6"/>
	<line class="st1" x1="130.9" y1="88.2" x2="193" y2="88.2"/>
	<g>
		<path class="st2" d="M310,389.2v-31c7-2.5,12-9.1,12-16.9c0-9.9-8-18-18-18c-9.9,0-18,8-18,18c0,7.8,5,14.5,12,16.9v31
			c0,0.4,0,0.7,0,1.1c-0.3,3-3,5.2-6,4.9h-35.9c-0.5,0-1,0-1.4,0c-6.2-0.4-10.9-5.8-10.5-12v-22.3c0-1.7-0.7-3.3-2-4.5
			c-6-5.5-13.8-8.8-21.9-9.1c0,0-0.1,0-0.1,0c-2.9,0.3-5.5-1.8-5.8-4.7l29.1-52.7c0.5-0.9,0.7-1.9,0.7-2.9v-11.6
			c0-43,34.9-77.8,77.9-77.9h23.9c0.4,0,0.7,0,1.1,0c3,0.3,5.2,3,5,6v25c-7,2.5-12,9.1-12,16.9c0,9.9,8,18,18,18c9.9,0,18-8,18-18
			c0-7.8-5-14.5-12-16.9v-25c0-0.3,0-0.7,0-1c-0.3-9.6-8.3-17.2-18-16.9h-24c-49.6,0.1-89.8,40.2-89.8,89.8v10.1L203,338.4
			c-0.5,0.9-0.7,1.9-0.7,2.9c0,0.3,0,0.7,0,1c0.3,9.6,8.3,17.2,18,16.9c4.4,0.2,8.5,1.8,12,4.5v19.5c0,0.5,0,0.9,0,1.4
			c0.4,12.9,11.1,23,24,22.6h35.9c0.3,0,0.7,0,1,0C302.7,406.8,310.3,398.8,310,389.2z M357.9,251.4c-3.3,0-6-2.7-6-6s2.7-6,6-6
			c3.3,0,6,2.7,6,6S361.2,251.4,357.9,251.4z M304,335.3c3.3,0,6,2.7,6,6c0,3.3-2.7,6-6,6c-3.3,0-6-2.7-6-6
			C298,337.9,300.7,335.3,304,335.3z"/>
		<path class="st2" d="M447.8,365.2h-60.9c-2.5-7-9.1-12-16.9-12c-9.9,0-18,8-18,18c0,9.9,8,18,18,18c7.8,0,14.5-5,16.9-12h60.9
			c0.4,0,0.7,0,1.1,0c3,0.3,5.2,3,4.9,6v11.3c-0.9,3.6-6.6,24.6-24,24.6c-3.3,0-6,2.7-6,6V461H310v-18h-12v24c0,3.3,2.7,6,6,6h125.8
			c3.3,0,6-2.7,6-6v-36.5c18.7-3.5,27.6-23.3,29.8-34.2c0.1-0.4,0.1-0.8,0.1-1.2v-12c0-0.3,0-0.7,0-1
			C465.5,372.5,457.4,364.9,447.8,365.2z M369.9,377.2c-3.3,0-6-2.7-6-6s2.7-6,6-6s6,2.7,6,6S373.2,377.2,369.9,377.2z"/>
		<path class="st2" d="M483.7,257.4h-15.1c-0.6-1.8-1.4-3.5-2.2-5.2l10.7-10.7c2.3-2.3,2.3-6.1,0-8.5l-16.9-16.9
			c-2.3-2.3-6.1-2.3-8.5,0L441,226.8c-1.7-0.8-3.4-1.5-5.2-2.2v-15.1c0-3.3-2.7-6-6-6h-24c-3.3,0-6,2.7-6,6v15.1
			c-3.3,1.2-6.4,2.6-9.4,4.4l6.1,10.3c3.4-2,7-3.5,10.8-4.5c2.6-0.7,4.5-3.1,4.5-5.8v-13.5h12V229c0,2.7,1.8,5.1,4.5,5.8
			c3.8,1,7.4,2.5,10.8,4.5c2.4,1.4,5.4,1,7.3-0.9l9.6-9.6l8.5,8.5l-9.6,9.6c-1.9,1.9-2.3,4.9-0.9,7.3c2,3.4,3.5,7,4.5,10.8
			c0.7,2.6,3.1,4.5,5.8,4.5h13.5v12h-13.5c-2.7,0-5.1,1.9-5.8,4.5c-1,3.8-2.5,7.4-4.5,10.8c-1.4,2.4-1,5.4,0.9,7.3l9.6,9.6L456,322
			l-9.6-9.6c-1.9-1.9-4.9-2.3-7.3-0.9c-3.4,2-7,3.5-10.8,4.5c-2.6,0.7-4.5,3.1-4.5,5.8v13.5h-12v-13.5c0-2.7-1.8-5.1-4.5-5.8
			c-3.8-1-7.4-2.5-10.8-4.5c-2.4-1.4-5.4-1-7.3,0.9l-9.6,9.6l-8.5-8.5l9.6-9.6c1.9-1.9,2.3-4.9,0.9-7.3c-2-3.4-3.5-7-4.5-10.8
			c-0.7-2.6-3.1-4.5-5.8-4.5h-19.5v12H367c0.6,1.8,1.4,3.5,2.2,5.2l-10.7,10.7c-2.3,2.3-2.3,6.1,0,8.5l16.9,16.9
			c2.3,2.3,6.1,2.3,8.5,0l10.7-10.7c1.7,0.8,3.4,1.5,5.2,2.2v15.1c0,3.3,2.7,6,6,6h24c3.3,0,6-2.7,6-6v-15.1
			c1.8-0.6,3.5-1.4,5.2-2.2l10.7,10.7c2.3,2.3,6.1,2.3,8.5,0l16.9-16.9c2.3-2.3,2.3-6.1,0-8.5l-10.7-10.7c0.8-1.7,1.5-3.4,2.2-5.2
			h15.1c3.3,0,6-2.7,6-6v-24C489.7,260.1,487,257.4,483.7,257.4z"/>
		<path class="st2" d="M417.8,299.3c13.2,0,24-10.7,24-24c0-13.2-10.7-24-24-24c-13.2,0-24,10.7-24,24
			C393.9,288.6,404.6,299.3,417.8,299.3z M417.8,263.4c6.6,0,12,5.4,12,12c0,6.6-5.4,12-12,12c-6.6,0-12-5.4-12-12
			C405.8,268.8,411.2,263.4,417.8,263.4z"/>
		<path class="st2" d="M262.1,281.4v6c0,0.2,0,0.3,0,0.5c0.1,6.5,5.5,11.6,12,11.5h18c0.2,0,0.3,0,0.5,0c6.5-0.1,11.6-5.5,11.5-12
			v-6h-12v6h-18v-6H262.1z"/>
		<rect x="328" y="281.4" class="st2" width="12" height="12"/>
		<rect x="328" y="305.3" class="st2" width="12" height="12"/>
		<rect x="298" y="419.1" class="st2" width="12" height="12"/>
	</g>
	<circle class="st3" cx="700.6" cy="47.9" r="3.8"/>
	<circle class="st3" cx="700.6" cy="68.3" r="3.8"/>
	<circle class="st3" cx="700.6" cy="87.4" r="3.8"/>
	<line class="st0" x1="111.8" y1="122.3" x2="712.8" y2="122.3"/>
</g>
</svg>
