<?xml version="1.0" encoding="utf-8"?>
<!-- Generator: Adobe Illustrator 22.0.1, SVG Export Plug-In . SVG Version: 6.00 Build 0)  -->
<svg version="1.1" id="Layer_1" xmlns="http://www.w3.org/2000/svg" xmlns:xlink="http://www.w3.org/1999/xlink" x="0px" y="0px"
	 viewBox="0 0 409 397" style="enable-background:new 0 0 409 397;" xml:space="preserve">
<style type="text/css">
	.st0{fill:#2E3192;stroke:#FFFFFF;stroke-width:3;stroke-miterlimit:10;}
</style>
<g>
	<g>
		<g>
			<path class="st0" d="M390.7,54.7c-0.7-1.8-2.2-3.1-4.1-3.5c-1.9-0.4-3.8,0.2-5.1,1.5l-26.4,26.4c-0.7,0.7-2,0.7-2.7,0l-17.2-17.2
				c-0.7-0.7-0.7-2,0-2.7l26.4-26.4c1.3-1.3,1.9-3.3,1.5-5.1c-0.4-1.9-1.7-3.4-3.5-4.1c-19.9-7.6-42.5-2.8-57.5,12.2
				c-14,14-19.1,34.6-13.6,53.4L269,107.2c-3-1.6-6-3-9.1-4.2l0.8-10.5c0.4-5.4-3.3-10.2-8.7-11.1l-13.8-2.3
				c-5.4-0.9-10.5,2.4-11.9,7.7l-2.7,10.1c-2.9,0.1-5.9,0.4-8.8,0.8l-2.6-5.6V79.5c0,0,0,0,0,0v-0.1c0-0.1,0-0.1,0-0.2
				c0-0.1,0-0.2,0-0.3c0,0,0-0.1,0-0.1c-0.1-0.9-0.4-1.7-0.9-2.5c-1.7-2.6-5.2-3.3-7.7-1.6c-6,3.9-20.1,6.3-27.7,6.3
				c-18.5,0-36.3-6.6-51.4-18.7l-17.7-19c3.4-5.1,7.2-9.4,11.4-13c17.5-14.9,38.1-14.2,38.3-14.2c13,0.7,25.4,6.6,36.7,17.5
				c10.1,9.8,17.6,23.7,22.4,41.4c0.8,3,3.9,4.8,6.9,3.9c3-0.8,4.8-3.9,3.9-6.9c-5.3-19.7-13.9-35.3-25.4-46.5
				C187.6,12.8,172.9,5.9,157.1,5c-1-0.1-25.1-1.1-46.2,16.8C104.9,27,99.5,33.4,95,41c0,0,0,0,0,0c0,0,0,0,0,0c0,0,0,0.1,0,0.1
				c0,0,0,0,0,0c-4.2,6.7-7.1,14.1-8.7,21.8c-1.4,6.9-1.8,14-1,21c0.2,1.6,1,3.1,2.4,4c0.9,0.7,2.1,1,3.2,1c0.4,0,0.9-0.1,1.3-0.2
				c1.4-0.3,2.8-0.7,4.2-1.2v34.6c0,19.5,9.7,36.8,24.5,47.3v9.2c0,4.6-2.4,8.7-6.4,11.6c-0.2,0.1-0.4,0.2-0.6,0.4
				c-2.3,1.6-5.1,2.8-8.3,3.4l-25.8,5.1c-23.9,4.7-40.7,22.6-40.7,43.6v78.3c0,13.8,5.3,26.9,14.9,36.8l14.3,14.8H26.4
				c-3.1,0-5.6,2.5-5.6,5.6c0,3.1,2.5,5.6,5.6,5.6h54.9h3.9h140h7.6h48.6c3.1,0,5.6-2.5,5.6-5.6c0-3.1-2.5-5.6-5.6-5.6h-36.8
				l13.8-16.9c8.5-10.4,13.1-23.4,13.1-36.8v-56c3.2-1.9,6.4-3.9,9.4-6.2l8.5,6.2c1.9,1.4,4,2,6.2,2c2.9,0,5.8-1.2,7.9-3.6l9.2-10.6
				c3.6-4.1,3.4-10.2-0.3-14.1l-7.3-7.6c1.9-3.5,3.6-7.1,5.1-10.8l10.5,0.8c5.5,0.4,10.2-3.3,11.1-8.7l2.3-13.8
				c0.9-5.4-2.4-10.5-7.7-11.9l-10.1-2.7c-0.1-2.9-0.4-5.9-0.8-8.8l9.5-4.5c4.9-2.3,7.3-7.9,5.4-13.1l-4.8-13.2
				c-1.7-4.6-6.2-7.3-10.9-6.9l9.3-10.4c19.1,6.1,40.1,1,54.5-13.3C393.6,97.2,398.4,74.6,390.7,54.7z M212.2,122.2v-12.7
				c0.1,0,0.3,0,0.4,0c5-1,10.2-1.4,15.3-1.4c0,0,0,0,0,0c2.5,0,4.8-1.7,5.4-4.2l3.6-13.6l12.5,2.1l-1.1,14.1
				c-0.2,2.6,1.4,4.9,3.8,5.7c2.7,0.9,5.4,2,8,3.2l-10.6,9.7c-3.5-1.2-7.2-2.2-10.9-2.8c-8.9-1.5-17.9-1.1-26.5,1
				C212.2,122.9,212.2,122.6,212.2,122.2z M210.7,135.3c8.4-2.9,17.3-3.6,26.1-2.1c1,0.2,2.1,0.4,3.1,0.6l-50.1,45.9
				c0-0.3-0.1-0.6-0.1-0.9V168C200.1,160,207.7,148.5,210.7,135.3z M100.6,74c-0.7,0.2-1.4,0.5-2,0.9c-0.9,0.4-1.7,0.7-2.6,1.1
				c0-3.6,0.4-7.1,1.2-10.6c0.8-3.8,1.9-7.4,3.5-10.9c3.6,4.4,7.4,8.5,11.5,12.2c-4.1,3.3-7.6,5.3-9.2,6.2
				C102.1,73.2,101.4,73.6,100.6,74z M107.5,122.2V83c0.3-0.1,0.5-0.3,0.8-0.4c2.1-1.1,7.1-4.1,12.7-8.8
				c16.3,11.9,35.2,18.4,54.9,18.4c6,0,16.8-1.3,25.1-3.9l0,33.9c0,25.8-21,46.8-46.8,46.8S107.5,148,107.5,122.2z M260.4,319.1
				L260.4,319.1c0,10.8-3.8,21.4-10.6,29.8l-8.8,10.8v-88.9c0-8.9-6.4-16.2-14.9-17.7c0.4-3.1,1.9-5.9,4.4-7.9l5.9-4.7
				c2.4-1.9,2.8-5.5,0.9-7.9c-1.9-2.4-5.5-2.8-7.9-0.9l-5.9,4.7c-5.1,4.1-8.1,9.9-8.6,16.3h-88.6c-3.1,0-5.6,2.5-5.6,5.6
				s2.5,5.6,5.6,5.6H223c3.8,0,6.8,3.1,6.8,6.8v97.6c0,2.5-2,4.5-4.5,4.5h-140c-0.7,0-1.3-0.2-1.9-0.4l-2.2-2.3
				c-0.2-0.5-0.4-1.2-0.4-1.8v-97.6c0-3.8,3.1-6.8,6.8-6.8h16.7c3.1,0,5.6-2.5,5.6-5.6c0-3.1-2.5-5.6-5.6-5.6H93.1
				c-0.5-6.4-3.5-12.3-8.6-16.3l-5.9-4.7c-2.4-1.9-5.9-1.5-7.9,0.9c-1.9,2.4-1.5,5.9,0.9,7.9l5.9,4.7c2.6,2.1,4.2,5.2,4.4,8.5
				c-7.2,2.4-12.4,9.1-12.4,17.1v87.4l-7.6-7.9c-7.6-7.8-11.7-18.1-11.7-29v-78.3c0-15.6,13-29,31.6-32.7l25.8-5.1
				c3.3-0.6,6.3-1.7,9.1-3.1c3.3,2.6,6.9,4.8,10.7,6.6c0.8,0.4,1.6,0.6,2.5,0.6c2.1,0,4.1-1.2,5-3.1c1.4-2.8,0.2-6.1-2.6-7.5
				c-2.2-1.1-4.4-2.3-6.4-3.7c3.9-4.5,6.1-10.1,6.1-16.1v-3c6.9,2.9,14.4,4.5,22.3,4.5c8.7,0,16.9-1.9,24.3-5.4v3.9
				c0,6,2.2,11.6,6.1,16.1c-8.6,5.9-18.9,9-29.4,9c-2.1,0-4.3-0.1-6.4-0.4c-3.1-0.4-5.9,1.8-6.2,4.9c-0.4,3.1,1.8,5.9,4.9,6.2
				c2.6,0.3,5.2,0.5,7.8,0.5c14,0,27.5-4.6,38.6-13.1c2.8,1.4,5.8,2.5,9.1,3.1l25.8,5.1c3.7,0.7,7.1,1.8,10.3,3.2
				c0.2,0.1,0.5,0.2,0.7,0.3c12.5,5.9,20.6,16.8,20.6,29.1L260.4,319.1L260.4,319.1z M250.6,207l29.6-32.8
				c1.5,6.8,1.7,13.8,0.6,20.7c-1.8,10.8-6.9,20.7-14.4,28.4C262.7,216.9,257.3,211.3,250.6,207z M315.3,147.2l4.3,11.9l-12.7,6
				c-2.3,1.1-3.6,3.6-3.1,6.1c1,5,1.4,10.1,1.4,15.3c0,2.6,1.7,4.8,4.2,5.5l13.6,3.6l-2.1,12.5l-14.1-1.1c-2.6-0.2-4.9,1.4-5.7,3.8
				c-1.9,5.7-4.5,11.2-7.7,16.3c-1.4,2.2-1.1,5,0.7,6.8l9.7,10.2l-8.3,9.6l-11.4-8.3c-2.1-1.5-4.9-1.4-6.9,0.2
				c-1.8,1.5-3.7,2.9-5.6,4.3v-7.1c0-2.8-0.3-5.5-0.9-8.2c11.2-9.8,18.7-23.2,21.1-37.9c1.8-10.9,0.8-22-2.8-32.3l12.2-13.6
				c0.1,0,0.3-0.1,0.4-0.1L315.3,147.2z M370.6,104.3c-12.1,12.1-30.2,15.8-46.1,9.5c-2.2-0.9-4.7-0.3-6.2,1.4l-39.7,44
				c-0.2,0.2-0.3,0.3-0.5,0.5l-38,42.1c-3-1.1-6.1-2-9.3-2.6l-25.8-5.1c-3.1-0.6-6-1.8-8.3-3.4c-0.2-0.1-0.4-0.3-0.6-0.4
				c-0.3-0.2-0.5-0.4-0.8-0.6l103.5-94.6c1.7-1.5,2.3-3.9,1.5-6.1c-5.8-15.7-2-33.4,9.8-45.2c9.7-9.7,23.5-14.1,36.8-12l-19.6,19.6
				c-2.5,2.5-3.8,5.8-3.8,9.3c0,3.5,1.4,6.8,3.8,9.3l17.2,17.2c5.1,5.1,13.4,5.1,18.5,0l19.6-19.6
				C384.7,80.8,380.4,94.6,370.6,104.3z"/>
			<path class="st0" d="M153.9,145c6.3,0,12.1-2.4,16.6-6.9c2.2-2.2,2.2-5.7,0-7.9c-2.2-2.2-5.7-2.2-7.9,0c-2.3,2.3-5.4,3.6-8.7,3.6
				c-3.3,0-6.3-1.3-8.7-3.6c-2.2-2.2-5.7-2.2-7.9,0c-2.2,2.2-2.2,5.7,0,7.9C141.8,142.6,147.7,145,153.9,145z"/>
		</g>
	</g>
</g>
</svg>
