<?xml version="1.0" encoding="utf-8"?>
<!-- Generator: Adobe Illustrator 22.0.1, SVG Export Plug-In . SVG Version: 6.00 Build 0)  -->
<svg version="1.1" id="Layer_1" xmlns="http://www.w3.org/2000/svg" xmlns:xlink="http://www.w3.org/1999/xlink" x="0px" y="0px"
	 viewBox="0 0 143.3 146.8" style="enable-background:new 0 0 143.3 146.8;" xml:space="preserve">
<style type="text/css">
	.st0{fill:#FFFFFF;stroke:#FFFFFF;stroke-width:0.5;stroke-miterlimit:10;}
</style>
<g>
	<g>
		<g>
			<path class="st0" d="M122.1,27.4C111.7,16,97.4,9.3,81.9,8.5c-15.5-0.7-30.3,4.7-41.8,15.1c-3.2,2.9-6,6.1-8.4,9.6
				c-0.6,0.9-0.4,2.1,0.5,2.8c0.9,0.6,2.1,0.4,2.8-0.5c2.3-3.2,4.9-6.2,7.9-8.9c22-20.1,56.3-18.5,76.4,3.5s18.5,56.3-3.5,76.4
				c-5.1,4.7-11,8.3-17.5,10.7c-0.5-0.9-1.1-1.8-1.8-2.6c-0.5-0.5-1.1-1-1.8-1.4l-5-3c7.4-1.7,14.3-5.3,20-10.6
				c8.9-8.1,14.1-19.2,14.6-31.2c0.5-12-3.6-23.5-11.7-32.4c-0.7-0.8-2-0.9-2.8-0.1c-0.8,0.7-0.9,2-0.1,2.8
				c7.4,8.1,11.2,18.6,10.7,29.5c-0.5,10.9-5.2,21-13.3,28.4c-6.3,5.8-14.1,9.4-22.5,10.4l-4.9-2.9c-4.1-2.4-9.3-1.8-12.7,1.6
				l-3.4,3.5c-0.3,0.3-0.7,0.4-1.1,0.2c-11.3-5-20.2-13.9-25.2-25.2c0,0,0,0,0,0c-0.2-0.4-0.1-0.8,0.2-1.1l3.5-3.5
				c3.4-3.4,4-8.6,1.6-12.7l-3.7-6.1c1.3-9.5,5.9-18.3,13-24.7c6.9-6.3,15.5-10,24.9-10.6c9.1-0.6,18.2,1.8,25.7,6.8
				c0.9,0.6,2.1,0.4,2.8-0.5c0.6-0.9,0.4-2.1-0.5-2.8c-8.2-5.5-18.2-8.2-28.2-7.5C66,22.3,56.6,26.3,49,33.2
				c-6.6,6-11.3,13.9-13.4,22.5L33.4,52c0,0,0,0,0,0c-0.4-0.6-0.9-1.2-1.4-1.8c-1-1-2.2-1.8-3.5-2.2c0.7-2,1.6-3.9,2.5-5.8
				c0.5-1,0.1-2.2-0.9-2.7c-1-0.5-2.2-0.1-2.7,0.9c-1.1,2.3-2.1,4.6-3,7c-2.2,0.2-4.3,1.1-6,2.7L16,52.6C7.4,61.2,4.8,74,9.4,85.3
				c8.4,20.7,24,37.8,43.7,48.2c1,0.5,2.2,0.1,2.7-0.8c0.5-1,0.1-2.2-0.8-2.7c-19-9.9-33.8-26.3-41.9-46.1c-4-9.8-1.7-20.9,5.7-28.3
				l2.4-2.4c1.2-1.2,2.7-1.7,4.2-1.6c0.1,0,0.3,0,0.4,0c0,0,0,0,0,0c1.2,0.2,2.3,0.7,3.3,1.6c0.3,0.3,0.6,0.7,0.8,1l9,15
				c1.5,2.5,1.1,5.8-1,7.9l-3.5,3.5c-1.4,1.4-1.8,3.7-1,5.5c5.3,12.2,15,21.9,27.2,27.3c1.9,0.8,4.1,0.4,5.5-1.1l3.4-3.5
				c2.1-2.1,5.3-2.5,7.9-1l5.5,3.3c0,0,0,0,0,0l9.6,5.7c0.4,0.2,0.7,0.5,1.1,0.8c2.2,2.2,2.2,5.7,0,7.9l-2.4,2.4
				c-7.5,7.5-18.6,9.7-28.4,5.7c-1-0.4-2.2,0.1-2.6,1.1c-0.4,1,0.1,2.2,1.1,2.6c3.7,1.5,7.6,2.2,11.4,2.2c7.8,0,15.5-3.1,21.3-8.8
				l2.4-2.4c2-1.9,2.9-4.5,2.8-7.1c7.1-2.6,13.5-6.5,19.2-11.7c11.5-10.5,18.2-24.8,18.9-40.3C138,53.7,132.6,38.9,122.1,27.4z"/>
		</g>
	</g>
	<g>
		<g>
			<path class="st0" d="M76.9,77.8c-0.3-0.4-0.7-0.6-1.1-0.6H63.1v-1.6c0-0.9,0.5-1.8,1.4-2.8c1-0.9,2.1-1.9,3.5-2.8
				c1.4-0.9,2.7-1.9,4.1-3c1.4-1,2.5-2.3,3.5-3.8c1-1.5,1.4-3.1,1.4-4.9c0-2.5-0.9-4.6-2.7-6.2c-1.8-1.6-4-2.4-6.6-2.4
				c-2.4,0-4.5,0.7-6.2,2.1c-1.7,1.4-2.6,3.3-2.6,5.5c0,1.7,0.7,2.6,2.1,2.6c0.7,0,1.3-0.2,1.8-0.5c0.4-0.3,0.7-0.7,0.7-1.2
				c0-1.4,0.4-2.5,1.2-3.2c0.8-0.7,1.9-1.1,3.2-1.1c1.5,0,2.7,0.5,3.5,1.4c0.8,0.9,1.2,2,1.2,3.2c0,1.2-0.5,2.4-1.4,3.6
				c-1,1.2-2.1,2.3-3.5,3.3l-4.2,3c-1.4,1-2.5,2.1-3.5,3.4c-0.9,1.2-1.4,2.5-1.4,3.8v4.2c0,0.4,0.2,0.8,0.7,1.1
				c0.4,0.3,0.9,0.4,1.4,0.4h15.3c0.4,0,0.8-0.2,1.1-0.6c0.3-0.4,0.5-0.9,0.5-1.4C77.4,78.7,77.2,78.2,76.9,77.8z"/>
		</g>
	</g>
	<g>
		<g>
			<path class="st0" d="M97.6,70.6c-0.3-0.4-0.7-0.6-1.1-0.6h-2.1v-6c0-0.5-0.2-0.9-0.7-1.1c-0.4-0.3-1-0.4-1.6-0.4
				c-1.5,0-2.3,0.5-2.3,1.5v6h-6.4l8.9-17.8c0.1-0.3,0.2-0.5,0.2-0.7c0-0.5-0.3-0.9-0.8-1.3s-1-0.5-1.5-0.5c-0.9,0-1.6,0.4-2,1.3
				L77.8,71.6c-0.2,0.3-0.3,0.6-0.3,1c0,0.5,0.2,0.9,0.5,1.2c0.3,0.3,0.7,0.4,1.1,0.4h10.6v5.6c0,0.5,0.2,0.8,0.7,1.1
				c0.4,0.3,1,0.4,1.6,0.4c0.6,0,1.1-0.1,1.6-0.4c0.5-0.3,0.7-0.6,0.7-1.1v-5.6h2.1c0.4,0,0.8-0.2,1.1-0.7c0.3-0.4,0.5-0.9,0.5-1.4
				C98,71.5,97.9,71,97.6,70.6z"/>
		</g>
	</g>
</g>
</svg>
